<?xml version="1.0" standalone="no"?>
<!DOCTYPE svg PUBLIC "-//W3C//DTD SVG 20010904//EN"
 "http://www.w3.org/TR/2001/REC-SVG-20010904/DTD/svg10.dtd">
<svg version="1.0" xmlns="http://www.w3.org/2000/svg"
 width="250.000000pt" height="85.000000pt" viewBox="0 0 250.000000 85.000000"
 preserveAspectRatio="xMidYMid meet">

<g transform="translate(0.000000,85.000000) scale(0.100000,-0.100000)"
fill="#000000" stroke="none">
<path d="M1130 566 l0 -286 40 0 40 0 0 222 0 221 86 -109 c47 -60 89 -109 94
-109 5 0 47 49 94 109 l86 109 0 -221 0 -222 40 0 40 0 0 285 0 285 -35 0
c-32 0 -41 -8 -127 -115 -51 -64 -95 -114 -99 -113 -5 2 -48 53 -96 113 -81
101 -91 110 -125 113 l-38 3 0 -285z"/>
<path d="M1777 843 c-4 -3 -7 -132 -7 -285 l0 -278 165 0 165 0 0 35 0 35
-125 0 -125 0 0 250 0 250 -33 0 c-19 0 -37 -3 -40 -7z"/>
<path d="M2180 565 l0 -285 160 0 160 0 0 35 0 35 -125 0 -125 0 0 90 0 90
115 0 115 0 0 35 0 35 -115 0 -116 0 3 88 3 87 118 3 117 3 0 34 0 35 -155 0
-155 0 0 -285z"/>
<path d="M33 51 c6 -17 14 -26 16 -19 2 7 8 22 14 33 9 17 8 18 -5 8 -11 -10
-17 -10 -26 -1 -8 8 -8 3 1 -21z"/>
<path d="M91 66 c-15 -18 -3 -46 19 -46 10 0 21 7 24 16 6 16 -9 44 -24 44 -4
0 -13 -6 -19 -14z m32 -11 c7 -16 -8 -29 -23 -20 -10 6 -2 35 10 35 4 0 10 -7
13 -15z"/>
<path d="M164 50 c1 -15 8 -26 19 -28 14 -3 17 3 16 30 -2 30 -2 31 -6 6 -5
-34 -20 -37 -26 -5 -3 19 -4 19 -3 -3z"/>
<path d="M231 48 c0 -18 3 -27 6 -20 3 9 9 10 17 3 10 -8 11 -3 8 19 -6 42
-32 39 -31 -2z"/>
<path d="M300 50 c0 -23 4 -30 20 -30 16 0 20 7 20 30 0 23 -4 30 -20 30 -16
0 -20 -7 -20 -30z m30 -10 c0 -5 -5 -10 -11 -10 -5 0 -7 5 -4 10 3 6 8 10 11
10 2 0 4 -4 4 -10z"/>
<path d="M400 55 c0 -14 -4 -25 -10 -25 -5 0 -10 9 -10 20 0 11 -4 20 -10 20
-12 0 -13 -20 -1 -39 13 -21 41 -5 41 24 0 14 -2 25 -5 25 -3 0 -5 -11 -5 -25z"/>
<path d="M435 69 c-4 -6 1 -17 11 -24 18 -14 18 -14 0 -15 -11 0 -17 -3 -13
-6 3 -4 14 -4 23 0 16 6 16 8 0 25 -13 15 -14 20 -4 24 9 4 9 6 1 6 -6 1 -15
-4 -18 -10z"/>
<path d="M492 50 c0 -19 2 -27 5 -17 2 9 2 25 0 35 -3 9 -5 1 -5 -18z"/>
<path d="M521 48 c1 -31 1 -31 8 -8 l7 25 8 -22 c11 -34 26 -28 25 10 -1 30
-1 30 -8 7 l-7 -25 -8 23 c-11 33 -26 27 -25 -10z"/>
<path d="M597 73 c-4 -3 -7 -17 -7 -30 0 -18 5 -23 23 -22 16 1 17 3 5 6 -14
3 -15 9 -8 29 9 23 2 32 -13 17z"/>
<path d="M646 71 c-3 -5 1 -15 10 -22 14 -12 14 -14 -3 -20 -16 -7 -16 -8 -1
-8 23 -1 34 19 17 30 -12 8 -12 11 1 19 13 8 13 10 -2 10 -9 0 -19 -4 -22 -9z"/>
<path d="M700 66 c0 -8 5 -18 11 -22 8 -4 7 -9 -2 -15 -11 -7 -10 -9 4 -9 19
0 23 26 5 33 -10 4 -9 8 2 16 13 9 13 11 -2 11 -10 0 -18 -6 -18 -14z"/>
<path d="M766 72 c7 -4 14 -18 16 -32 3 -23 4 -22 9 8 5 27 3 32 -15 32 -13 0
-17 -3 -10 -8z"/>
<path d="M821 48 c0 -18 3 -27 6 -20 3 9 9 10 17 3 9 -7 12 -3 11 17 0 17 -6
28 -17 30 -14 3 -18 -3 -17 -30z m29 18 c0 -3 -4 -8 -10 -11 -5 -3 -10 -1 -10
4 0 6 5 11 10 11 6 0 10 -2 10 -4z"/>
<path d="M886 58 c-8 -33 -8 -33 18 -33 21 0 22 3 14 28 -12 33 -24 35 -32 5z"/>
<path d="M950 75 c0 -5 9 -21 20 -35 11 -14 20 -20 20 -15 0 6 -9 21 -20 35
-11 14 -20 21 -20 15z"/>
<path d="M1020 66 c0 -8 5 -18 11 -22 8 -4 7 -9 -2 -15 -11 -7 -10 -9 4 -9 19
0 23 26 5 33 -10 4 -9 8 2 16 13 9 13 11 -2 11 -10 0 -18 -6 -18 -14z"/>
<path d="M1070 50 c0 -26 2 -29 14 -18 10 9 11 15 2 21 -8 5 -7 10 4 17 13 8
12 10 -2 10 -13 0 -18 -8 -18 -30z"/>
<path d="M1124 66 c-9 -24 4 -48 23 -44 12 2 18 12 18 28 0 29 -32 41 -41 16z
m36 -16 c0 -11 -4 -20 -9 -20 -14 0 -23 18 -16 30 10 17 25 11 25 -10z"/>
<path d="M1200 48 c0 -25 3 -29 10 -18 6 10 10 11 10 3 0 -7 4 -13 9 -13 13 0
-3 53 -17 58 -8 2 -12 -8 -12 -30z"/>
<path d="M1261 50 c0 -33 1 -34 11 -12 8 17 8 26 0 34 -9 9 -12 4 -11 -22z"/>
<path d="M1291 54 c-14 -32 -14 -45 1 -19 11 19 11 19 19 0 6 -17 8 -16 8 7 1
36 -14 43 -28 12z"/>
<path d="M1346 58 c-8 -33 -8 -33 18 -34 22 -2 23 0 14 27 -12 35 -24 37 -32
7z"/>
<path d="M1409 48 c3 -24 6 -27 9 -13 2 11 9 26 14 33 8 9 5 12 -9 12 -16 0
-19 -5 -14 -32z"/>
<path d="M1462 50 c0 -19 2 -27 5 -17 2 9 2 25 0 35 -3 9 -5 1 -5 -18z"/>
<path d="M1494 66 c-9 -24 4 -48 23 -44 12 2 18 12 18 28 0 29 -32 41 -41 16z
m36 -16 c0 -11 -4 -20 -9 -20 -14 0 -23 18 -16 30 10 17 25 11 25 -10z"/>
<path d="M1570 75 c0 -5 9 -21 20 -35 11 -14 20 -20 20 -15 0 6 -9 21 -20 35
-11 14 -20 21 -20 15z"/>
<path d="M1650 43 c-3 -23 -2 -39 3 -34 5 5 7 24 5 42 -3 33 -4 33 -8 -8z"/>
<path d="M1694 65 c-8 -21 3 -45 20 -45 20 0 29 16 21 40 -7 23 -33 27 -41 5z
m31 -15 c0 -7 -6 -15 -12 -18 -8 -2 -13 5 -13 18 0 13 5 20 13 18 6 -3 12 -11
12 -18z"/>
<path d="M1764 50 c1 -15 8 -26 19 -28 13 -3 17 3 16 25 -1 23 -2 24 -6 6 -6
-29 -20 -29 -26 0 -3 19 -4 19 -3 -3z"/>
<path d="M1831 48 c0 -18 3 -27 6 -20 3 9 9 10 17 3 9 -7 12 -3 11 17 0 17 -6
28 -17 30 -14 3 -18 -3 -17 -30z"/>
<path d="M1891 48 c1 -31 1 -31 8 -8 l7 25 8 -22 c11 -34 26 -28 25 10 -1 30
-1 30 -8 7 l-7 -25 -8 23 c-11 33 -26 27 -25 -10z"/>
<path d="M1960 50 c0 -22 5 -30 18 -30 9 0 13 4 7 8 -5 4 -10 14 -10 22 0 8 5
18 10 22 6 4 2 8 -7 8 -13 0 -18 -8 -18 -30z"/>
<path d="M2023 50 c10 -25 13 -28 19 -13 9 24 10 38 1 30 -3 -4 -12 -2 -19 4
-10 8 -11 5 -1 -21z"/>
<path d="M2090 50 l0 -31 21 20 c22 20 19 41 -7 41 -9 0 -14 -11 -14 -30z"/>
<path d="M2153 54 c-9 -27 -8 -29 13 -29 27 0 30 13 11 40 -13 17 -15 16 -24
-11z"/>
<path d="M2211 48 c0 -18 3 -27 6 -20 4 10 8 10 18 2 11 -9 13 -6 12 17 -2 17
-9 29 -20 31 -13 3 -17 -3 -16 -30z m29 12 c0 -5 -4 -10 -10 -10 -5 0 -10 5
-10 10 0 6 5 10 10 10 6 0 10 -4 10 -10z"/>
<path d="M2279 48 c5 -30 6 -31 9 -8 2 14 9 28 16 32 7 5 3 8 -10 8 -18 0 -20
-5 -15 -32z"/>
<path d="M2331 50 c0 -33 1 -34 10 -11 6 16 6 28 -1 35 -7 7 -10 -1 -9 -24z"/>
<path d="M2370 59 c0 -12 -4 -18 -11 -13 -7 4 -10 1 -7 -6 9 -28 28 -22 28 9
0 17 -2 31 -5 31 -3 0 -5 -9 -5 -21z"/>
<path d="M2400 50 c0 -22 5 -30 18 -30 13 0 14 2 4 9 -14 9 -13 32 3 43 6 4 2
8 -7 8 -13 0 -18 -8 -18 -30z"/>
<path d="M2450 48 c0 -25 3 -29 10 -18 9 13 11 13 20 0 7 -11 9 -7 7 15 -2 19
-9 31 -20 33 -13 3 -17 -4 -17 -30z m30 12 c0 -5 -2 -10 -4 -10 -3 0 -8 5 -11
10 -3 6 -1 10 4 10 6 0 11 -4 11 -10z"/>
</g>
</svg>
